<svg xmlns="http://www.w3.org/2000/svg" width="800" height="200" viewBox="0 0 800 200">
  <defs>
    <filter id="shadow" x="-2%" y="-4%" width="104%" height="112%">
      <feDropShadow dx="0" dy="2" stdDeviation="3" flood-opacity="0.1"/>
    </filter>
  </defs>
  <rect width="800" height="200" rx="12" fill="#fafafa"/>

  <text x="40" y="36" font-family="Roboto,sans-serif" font-size="15" fill="#212121" font-weight="500">
    <tspan fill="#03a9f4">&#x1F3CA;</tspan> Pool
  </text>

  <!-- Custom template card -->
  <rect x="40" y="50" width="720" height="68" rx="12" fill="#ffffff" filter="url(#shadow)"/>
  <text x="56" y="74" font-family="Roboto,sans-serif" font-size="13" fill="#212121" font-weight="500">Poolfilter reinigen</text>
  <rect x="176" y="62" width="82" height="18" rx="9" fill="#03a9f4"/>
  <text x="217" y="75" font-family="Roboto,sans-serif" font-size="9" fill="white" text-anchor="middle" font-weight="500">Eigene Vorlage</text>
  <text x="56" y="94" font-family="Roboto,sans-serif" font-size="11" fill="#727272">Poolfilter r端cksp端len und Filtermedium pr端fen</text>
  <rect x="56" y="100" width="34" height="16" rx="8" fill="#2196f3"/>
  <text x="73" y="112" font-family="Roboto,sans-serif" font-size="9" fill="white" text-anchor="middle" font-weight="500">Mittel</text>
  <text x="100" y="112" font-family="Roboto,sans-serif" font-size="11" fill="#727272">2 Wochen</text>
  <!-- Delete button (only on custom) -->
  <rect x="682" y="68" width="30" height="24" rx="6" fill="#f44336"/>
  <text x="697" y="85" font-family="Roboto,sans-serif" font-size="11" fill="white" text-anchor="middle">&#x1F5D1;</text>
  <!-- Add button -->
  <rect x="720" y="68" width="30" height="24" rx="6" fill="#03a9f4"/>
  <text x="735" y="85" font-family="Roboto,sans-serif" font-size="16" fill="white" text-anchor="middle">+</text>

  <!-- Built-in template (no delete) -->
  <rect x="40" y="128" width="720" height="58" rx="12" fill="#ffffff" filter="url(#shadow)"/>
  <text x="56" y="154" font-family="Roboto,sans-serif" font-size="13" fill="#212121" font-weight="500">Poolwasser testen</text>
  <text x="56" y="172" font-family="Roboto,sans-serif" font-size="11" fill="#727272">pH-Wert und Chlorgehalt pr端fen</text>
  <rect x="56" y="176" width="34" height="16" rx="8" fill="#ff9800"/>
  <text x="73" y="188" font-family="Roboto,sans-serif" font-size="9" fill="white" text-anchor="middle" font-weight="500">Hoch</text>
  <text x="100" y="188" font-family="Roboto,sans-serif" font-size="11" fill="#727272">1 Wochen</text>
  <!-- Only Add button (no delete for builtin) -->
  <rect x="720" y="146" width="30" height="24" rx="6" fill="#03a9f4"/>
  <text x="735" y="163" font-family="Roboto,sans-serif" font-size="16" fill="white" text-anchor="middle">+</text>
</svg>
