<svg xmlns="http://www.w3.org/2000/svg" width="800" height="520" viewBox="0 0 800 520">
  <defs>
    <filter id="shadow" x="-2%" y="-2%" width="104%" height="108%">
      <feDropShadow dx="0" dy="2" stdDeviation="3" flood-opacity="0.1"/>
    </filter>
  </defs>
  <!-- Background -->
  <rect width="800" height="520" rx="12" fill="#fafafa"/>
  <!-- Header -->
  <text x="40" y="42" font-family="Roboto,sans-serif" font-size="22" fill="#212121" font-weight="400">
    <tspan fill="#03a9f4">&#x1F527;</tspan> Wartungsplaner
  </text>
  <!-- Tabs -->
  <rect x="40" y="58" width="720" height="1" fill="#e0e0e0"/>
  <text x="52" y="80" font-family="Roboto,sans-serif" font-size="13" fill="#03a9f4" font-weight="500">Übersicht</text>
  <rect x="40" y="86" width="75" height="3" rx="1" fill="#03a9f4"/>
  <text x="145" y="80" font-family="Roboto,sans-serif" font-size="13" fill="#727272">Aufgaben</text>
  <text x="235" y="80" font-family="Roboto,sans-serif" font-size="13" fill="#727272">Vorlagen</text>

  <!-- Stat Cards -->
  <rect x="40" y="106" width="165" height="90" rx="12" fill="#ffffff" filter="url(#shadow)"/>
  <text x="122" y="150" font-family="Roboto,sans-serif" font-size="34" fill="#212121" font-weight="500" text-anchor="middle">12</text>
  <text x="122" y="174" font-family="Roboto,sans-serif" font-size="11" fill="#727272" text-anchor="middle" letter-spacing="0.5">GESAMT</text>

  <rect x="222" y="106" width="165" height="90" rx="12" fill="#ffffff" filter="url(#shadow)"/>
  <text x="304" y="150" font-family="Roboto,sans-serif" font-size="34" fill="#b71c1c" font-weight="500" text-anchor="middle">2</text>
  <text x="304" y="174" font-family="Roboto,sans-serif" font-size="11" fill="#727272" text-anchor="middle" letter-spacing="0.5">ÜBERFÄLLIG</text>

  <rect x="404" y="106" width="165" height="90" rx="12" fill="#ffffff" filter="url(#shadow)"/>
  <text x="486" y="150" font-family="Roboto,sans-serif" font-size="34" fill="#ff9800" font-weight="500" text-anchor="middle">3</text>
  <text x="486" y="174" font-family="Roboto,sans-serif" font-size="11" fill="#727272" text-anchor="middle" letter-spacing="0.5">BALD FÄLLIG</text>

  <rect x="586" y="106" width="165" height="90" rx="12" fill="#ffffff" filter="url(#shadow)"/>
  <text x="668" y="150" font-family="Roboto,sans-serif" font-size="34" fill="#4caf50" font-weight="500" text-anchor="middle">7</text>
  <text x="668" y="174" font-family="Roboto,sans-serif" font-size="11" fill="#727272" text-anchor="middle" letter-spacing="0.5">ERLEDIGT</text>

  <!-- Section title -->
  <text x="40" y="236" font-family="Roboto,sans-serif" font-size="16" fill="#212121" font-weight="500">Dringende Aufgaben</text>

  <!-- Task Card 1 - overdue -->
  <rect x="40" y="252" width="720" height="80" rx="12" fill="#ffffff" filter="url(#shadow)"/>
  <rect x="40" y="252" width="5" height="80" rx="2.5" fill="#b71c1c"/>
  <text x="68" y="278" font-family="Roboto,sans-serif" font-size="14" fill="#212121" font-weight="500">Rauchmelder testen</text>
  <rect x="630" y="264" width="62" height="20" rx="10" fill="#b71c1c"/>
  <text x="661" y="278" font-family="Roboto,sans-serif" font-size="10" fill="white" text-anchor="middle" font-weight="500">Überfällig</text>
  <rect x="698" y="264" width="50" height="20" rx="10" fill="#f44336"/>
  <text x="723" y="278" font-family="Roboto,sans-serif" font-size="10" fill="white" text-anchor="middle" font-weight="500">Kritisch</text>
  <text x="68" y="298" font-family="Roboto,sans-serif" font-size="11" fill="#727272">15 Tage überfällig</text>
  <text x="210" y="298" font-family="Roboto,sans-serif" font-size="11" fill="#727272">Sicherheit</text>
  <text x="310" y="298" font-family="Roboto,sans-serif" font-size="11" fill="#727272">3 Monate</text>

  <!-- Task Card 2 - due -->
  <rect x="40" y="342" width="720" height="80" rx="12" fill="#ffffff" filter="url(#shadow)"/>
  <rect x="40" y="342" width="5" height="80" rx="2.5" fill="#f44336"/>
  <text x="68" y="368" font-family="Roboto,sans-serif" font-size="14" fill="#212121" font-weight="500">FI-Schutzschalter testen</text>
  <rect x="648" y="354" width="42" height="20" rx="10" fill="#f44336"/>
  <text x="669" y="368" font-family="Roboto,sans-serif" font-size="10" fill="white" text-anchor="middle" font-weight="500">Fällig</text>
  <rect x="698" y="354" width="50" height="20" rx="10" fill="#f44336"/>
  <text x="723" y="368" font-family="Roboto,sans-serif" font-size="10" fill="white" text-anchor="middle" font-weight="500">Kritisch</text>
  <text x="68" y="388" font-family="Roboto,sans-serif" font-size="11" fill="#727272">Fällig</text>
  <text x="130" y="388" font-family="Roboto,sans-serif" font-size="11" fill="#727272">Elektrik</text>
  <text x="210" y="388" font-family="Roboto,sans-serif" font-size="11" fill="#727272">6 Monate</text>

  <!-- Task Card 3 - due_soon -->
  <rect x="40" y="432" width="720" height="80" rx="12" fill="#ffffff" filter="url(#shadow)"/>
  <rect x="40" y="432" width="5" height="80" rx="2.5" fill="#ff9800"/>
  <text x="68" y="458" font-family="Roboto,sans-serif" font-size="14" fill="#212121" font-weight="500">Heizungsanlage warten lassen</text>
  <rect x="622" y="444" width="68" height="20" rx="10" fill="#ff9800"/>
  <text x="656" y="458" font-family="Roboto,sans-serif" font-size="10" fill="white" text-anchor="middle" font-weight="500">Bald fällig</text>
  <rect x="698" y="444" width="50" height="20" rx="10" fill="#ff9800"/>
  <text x="723" y="458" font-family="Roboto,sans-serif" font-size="10" fill="white" text-anchor="middle" font-weight="500">Hoch</text>
  <text x="68" y="478" font-family="Roboto,sans-serif" font-size="11" fill="#727272">5 Tage</text>
  <text x="140" y="478" font-family="Roboto,sans-serif" font-size="11" fill="#727272">Heizung</text>
  <text x="225" y="478" font-family="Roboto,sans-serif" font-size="11" fill="#727272">1 Jahre</text>
</svg>
