<svg xmlns="http://www.w3.org/2000/svg" width="300" height="400" viewBox="0 0 300 400">
  <!-- HA Sidebar mockup -->
  <rect width="300" height="400" fill="#1c1c1c"/>

  <!-- Sidebar items -->
  <rect x="0" y="0" width="300" height="56" fill="#1c1c1c"/>
  <circle cx="36" cy="28" r="16" fill="#03a9f4" opacity="0.2"/>
  <text x="36" y="33" font-family="Roboto,sans-serif" font-size="14" fill="#03a9f4" text-anchor="middle">HA</text>

  <!-- Nav items -->
  <rect x="0" y="64" width="300" height="44" fill="transparent"/>
  <text x="60" y="91" font-family="Roboto,sans-serif" font-size="14" fill="#aaaaaa">&#x1F3E0;  Übersicht</text>

  <rect x="0" y="108" width="300" height="44" fill="transparent"/>
  <text x="60" y="135" font-family="Roboto,sans-serif" font-size="14" fill="#aaaaaa">&#x26A1;  Energie</text>

  <rect x="0" y="152" width="300" height="44" fill="transparent"/>
  <text x="60" y="179" font-family="Roboto,sans-serif" font-size="14" fill="#aaaaaa">&#x1F4CA;  Verlauf</text>

  <rect x="0" y="196" width="300" height="44" fill="transparent"/>
  <text x="60" y="223" font-family="Roboto,sans-serif" font-size="14" fill="#aaaaaa">&#x1F4DD;  Logbuch</text>

  <rect x="0" y="240" width="300" height="44" fill="transparent"/>
  <text x="60" y="267" font-family="Roboto,sans-serif" font-size="14" fill="#aaaaaa">&#x1F4BB;  Medien</text>

  <rect x="0" y="284" width="300" height="44" fill="transparent"/>
  <text x="60" y="311" font-family="Roboto,sans-serif" font-size="14" fill="#aaaaaa">&#x1F4CB;  To-do-Listen</text>

  <!-- Active: Wartungsplaner -->
  <rect x="0" y="328" width="300" height="44" rx="0" fill="rgba(3,169,244,0.12)"/>
  <rect x="0" y="328" width="4" height="44" fill="#03a9f4"/>
  <text x="60" y="355" font-family="Roboto,sans-serif" font-size="14" fill="#03a9f4" font-weight="500">&#x1F527;  Wartungsplaner</text>

  <rect x="0" y="372" width="300" height="44" fill="transparent"/>
  <text x="60" y="399" font-family="Roboto,sans-serif" font-size="14" fill="#aaaaaa">&#x2699;  Einstellungen</text>
</svg>
