<svg xmlns="http://www.w3.org/2000/svg" width="800" height="480" viewBox="0 0 800 480">
  <defs>
    <filter id="shadow" x="-2%" y="-2%" width="104%" height="108%">
      <feDropShadow dx="0" dy="2" stdDeviation="3" flood-opacity="0.1"/>
    </filter>
  </defs>
  <rect width="800" height="480" rx="12" fill="#fafafa"/>
  <!-- Header -->
  <text x="40" y="42" font-family="Roboto,sans-serif" font-size="22" fill="#212121" font-weight="400">
    <tspan fill="#03a9f4">&#x1F527;</tspan> Wartungsplaner
  </text>
  <!-- Tabs -->
  <rect x="40" y="58" width="720" height="1" fill="#e0e0e0"/>
  <text x="52" y="80" font-family="Roboto,sans-serif" font-size="13" fill="#727272">Übersicht</text>
  <text x="145" y="80" font-family="Roboto,sans-serif" font-size="13" fill="#03a9f4" font-weight="500">Aufgaben</text>
  <rect x="133" y="86" width="72" height="3" rx="1" fill="#03a9f4"/>
  <text x="235" y="80" font-family="Roboto,sans-serif" font-size="13" fill="#727272">Vorlagen</text>

  <!-- Toolbar - flat dropdowns -->
  <rect x="40" y="104" width="140" height="34" rx="4" fill="#ffffff"/>
  <rect x="40" y="136" width="140" height="2" fill="#e0e0e0"/>
  <text x="52" y="126" font-family="Roboto,sans-serif" font-size="13" fill="#212121">Alle</text>
  <text x="160" y="126" font-family="Roboto,sans-serif" font-size="10" fill="#727272">&#x25BC;</text>

  <rect x="192" y="104" width="140" height="34" rx="4" fill="#ffffff"/>
  <rect x="192" y="136" width="140" height="2" fill="#e0e0e0"/>
  <text x="204" y="126" font-family="Roboto,sans-serif" font-size="13" fill="#212121">Alle</text>
  <text x="312" y="126" font-family="Roboto,sans-serif" font-size="10" fill="#727272">&#x25BC;</text>

  <rect x="344" y="104" width="200" height="34" rx="4" fill="#ffffff"/>
  <rect x="344" y="136" width="200" height="2" fill="#e0e0e0"/>
  <text x="356" y="126" font-family="Roboto,sans-serif" font-size="13" fill="#9e9e9e">Suchen...</text>

  <!-- Gear button -->
  <rect x="636" y="104" width="36" height="34" rx="8" fill="#ffffff" stroke="#e0e0e0"/>
  <text x="654" y="126" font-family="Roboto,sans-serif" font-size="16" fill="#727272" text-anchor="middle">&#x2699;</text>

  <!-- Add button -->
  <rect x="680" y="104" width="80" height="34" rx="8" fill="#03a9f4"/>
  <text x="720" y="126" font-family="Roboto,sans-serif" font-size="12" fill="white" text-anchor="middle" font-weight="500">+ Hinzufügen</text>

  <!-- Task Card 1 -->
  <rect x="40" y="154" width="720" height="94" rx="12" fill="#ffffff" filter="url(#shadow)"/>
  <rect x="40" y="154" width="5" height="94" rx="2.5" fill="#b71c1c"/>
  <text x="68" y="180" font-family="Roboto,sans-serif" font-size="14" fill="#212121" font-weight="500">Rauchmelder testen</text>
  <rect x="630" y="166" width="62" height="20" rx="10" fill="#b71c1c"/>
  <text x="661" y="180" font-family="Roboto,sans-serif" font-size="10" fill="white" text-anchor="middle" font-weight="500">Überfällig</text>
  <rect x="698" y="166" width="50" height="20" rx="10" fill="#f44336"/>
  <text x="723" y="180" font-family="Roboto,sans-serif" font-size="10" fill="white" text-anchor="middle" font-weight="500">Kritisch</text>
  <text x="68" y="198" font-family="Roboto,sans-serif" font-size="11" fill="#727272">Alle Rauchmelder auf Funktion testen und Batterien prüfen</text>
  <text x="68" y="218" font-family="Roboto,sans-serif" font-size="11" fill="#727272">15 Tage überfällig  &#x2022;  Sicherheit  &#x2022;  3 Monate</text>
  <!-- Action buttons -->
  <rect x="608" y="224" width="28" height="22" rx="6" fill="#ffffff" stroke="#e0e0e0"/>
  <text x="622" y="239" font-family="Roboto,sans-serif" font-size="10" fill="#727272" text-anchor="middle">&#x1F4BE;</text>
  <rect x="642" y="224" width="28" height="22" rx="6" fill="#4caf50"/>
  <text x="656" y="239" font-family="Roboto,sans-serif" font-size="11" fill="white" text-anchor="middle">&#x2713;</text>
  <rect x="676" y="224" width="28" height="22" rx="6" fill="#ffffff" stroke="#e0e0e0"/>
  <text x="690" y="239" font-family="Roboto,sans-serif" font-size="10" fill="#727272" text-anchor="middle">&#x270E;</text>
  <rect x="710" y="224" width="28" height="22" rx="6" fill="#f44336"/>
  <text x="724" y="239" font-family="Roboto,sans-serif" font-size="10" fill="white" text-anchor="middle">&#x1F5D1;</text>

  <!-- Task Card 2 -->
  <rect x="40" y="260" width="720" height="94" rx="12" fill="#ffffff" filter="url(#shadow)"/>
  <rect x="40" y="260" width="5" height="94" rx="2.5" fill="#ff9800"/>
  <text x="68" y="286" font-family="Roboto,sans-serif" font-size="14" fill="#212121" font-weight="500">Heizungsanlage warten lassen</text>
  <rect x="622" y="272" width="68" height="20" rx="10" fill="#ff9800"/>
  <text x="656" y="286" font-family="Roboto,sans-serif" font-size="10" fill="white" text-anchor="middle" font-weight="500">Bald fällig</text>
  <rect x="698" y="272" width="50" height="20" rx="10" fill="#ff9800"/>
  <text x="723" y="286" font-family="Roboto,sans-serif" font-size="10" fill="white" text-anchor="middle" font-weight="500">Hoch</text>
  <text x="68" y="304" font-family="Roboto,sans-serif" font-size="11" fill="#727272">Jährliche Wartung der Heizungsanlage durch Fachbetrieb</text>
  <text x="68" y="324" font-family="Roboto,sans-serif" font-size="11" fill="#727272">5 Tage  &#x2022;  Heizung  &#x2022;  1 Jahre</text>
  <rect x="608" y="330" width="28" height="22" rx="6" fill="#ffffff" stroke="#e0e0e0"/>
  <rect x="642" y="330" width="28" height="22" rx="6" fill="#4caf50"/>
  <rect x="676" y="330" width="28" height="22" rx="6" fill="#ffffff" stroke="#e0e0e0"/>
  <rect x="710" y="330" width="28" height="22" rx="6" fill="#f44336"/>

  <!-- Task Card 3 -->
  <rect x="40" y="366" width="720" height="94" rx="12" fill="#ffffff" filter="url(#shadow)"/>
  <rect x="40" y="366" width="5" height="94" rx="2.5" fill="#4caf50"/>
  <text x="68" y="392" font-family="Roboto,sans-serif" font-size="14" fill="#212121" font-weight="500">Waschmaschine reinigen</text>
  <rect x="644" y="378" width="48" height="20" rx="10" fill="#4caf50"/>
  <text x="668" y="392" font-family="Roboto,sans-serif" font-size="10" fill="white" text-anchor="middle" font-weight="500">Erledigt</text>
  <rect x="698" y="378" width="50" height="20" rx="10" fill="#2196f3"/>
  <text x="723" y="392" font-family="Roboto,sans-serif" font-size="10" fill="white" text-anchor="middle" font-weight="500">Mittel</text>
  <text x="68" y="410" font-family="Roboto,sans-serif" font-size="11" fill="#727272">Waschmaschine mit Maschinenreiniger reinigen, Flusensieb säubern</text>
  <text x="68" y="430" font-family="Roboto,sans-serif" font-size="11" fill="#727272">42 Tage  &#x2022;  Geräte  &#x2022;  2 Monate</text>
  <rect x="608" y="436" width="28" height="22" rx="6" fill="#ffffff" stroke="#e0e0e0"/>
  <rect x="642" y="436" width="28" height="22" rx="6" fill="#4caf50"/>
  <rect x="676" y="436" width="28" height="22" rx="6" fill="#ffffff" stroke="#e0e0e0"/>
  <rect x="710" y="436" width="28" height="22" rx="6" fill="#f44336"/>
</svg>
